<svg version="1.1" id="Layer_1" xmlns="http://www.w3.org/2000/svg" xmlns:xlink="http://www.w3.org/1999/xlink" x="0px" y="0px"
	 width="100%" viewBox="0 0 620 667" enable-background="new 0 0 620 667" xml:space="preserve">
<path fill="#000000" opacity="1.000000" stroke="none" 
	d="
M345.000000,668.000000 
	C230.000015,668.000000 115.500038,668.000000 1.000046,668.000000 
	C1.000031,445.666718 1.000031,223.333450 1.000015,1.000136 
	C207.666565,1.000090 414.333130,1.000090 620.999756,1.000045 
	C620.999878,223.333191 620.999878,445.666382 620.999939,667.999756 
	C529.166687,668.000000 437.333344,668.000000 345.000000,668.000000 
M402.409180,432.899689 
	C414.803925,416.675446 427.198639,400.451233 439.593384,384.226990 
	C439.777435,388.262085 439.372437,391.907562 438.448578,395.416412 
	C435.237610,407.611450 431.858734,419.762390 428.517273,431.922821 
	C427.424622,435.899200 428.770447,438.586853 432.409546,440.516479 
	C444.538544,446.947815 462.948639,439.564026 466.947479,426.710693 
	C474.147583,403.567780 481.548981,380.487427 488.721863,357.336182 
	C495.981689,333.904388 503.066528,310.418365 510.215973,286.995728 
	C487.827423,278.590485 473.973175,281.497559 461.672241,297.590332 
	C446.939270,316.864868 432.315033,336.223206 417.471863,355.412354 
	C413.890320,360.042572 409.632660,364.149841 404.842255,369.426971 
	C403.698090,362.744751 402.801422,357.552979 401.921051,352.358429 
	C398.586426,332.681915 395.309265,312.995422 391.895721,293.332642 
	C390.801361,287.029114 387.424561,283.408966 381.976898,283.122284 
	C376.672577,282.843170 371.311554,283.036438 366.009888,283.456665 
	C358.406982,284.059265 353.508759,288.340942 351.281403,295.586853 
	C348.260223,305.415253 345.511139,315.330322 342.334564,325.107269 
	C335.352997,346.595276 328.207550,368.030365 321.007690,389.446320 
	C320.539703,390.838379 319.041779,391.884186 318.022949,393.091034 
	C317.296234,391.811371 316.142670,390.605927 315.905334,389.241150 
	C310.274353,356.863892 304.720581,324.473114 299.220795,292.073242 
	C298.589813,288.356079 297.208984,285.381470 293.374359,284.188599 
	C276.781342,279.027039 265.270630,282.644196 254.846771,296.413055 
	C235.502121,321.965424 216.215286,347.561584 196.896179,373.133362 
	C184.583893,389.430542 172.153976,405.640259 159.987534,422.045471 
	C155.185989,428.519867 153.990036,435.847198 156.433350,443.074768 
	C162.649246,443.074768 168.497055,442.414734 174.137527,443.215363 
	C185.099838,444.771393 191.857224,440.402496 197.204575,430.935455 
	C210.254684,407.831238 229.019547,395.217194 256.880676,400.764984 
	C259.372040,401.261047 263.077271,400.784180 264.772278,399.205811 
	C270.069458,394.273193 270.531769,387.399811 269.736145,380.673126 
	C269.053680,374.903198 264.463837,372.594299 259.462006,371.141052 
	C255.588379,370.015533 251.674164,369.029755 247.670898,367.953064 
	C254.283340,354.223755 262.819519,344.033081 270.656860,340.360474 
	C275.687897,370.009125 281.058685,399.559296 285.593689,429.237152 
	C288.001495,444.994354 291.198059,448.892212 309.758240,447.402557 
	C320.796631,446.516602 322.235931,445.067688 323.600433,433.984619 
	C324.832397,423.978027 329.557281,418.661530 339.639648,417.272797 
	C346.281769,416.357910 350.168060,412.998871 352.124054,406.862183 
	C354.746002,398.636200 357.185822,390.342590 360.125000,382.230621 
	C362.094940,376.793762 364.795807,371.621704 367.169617,366.331177 
	C367.704773,366.454132 368.239899,366.577087 368.775055,366.700043 
	C372.161560,387.778412 375.649139,408.841431 378.860291,429.946503 
	C379.618500,434.929840 380.986572,438.983032 386.302673,440.520538 
	C393.526459,442.609802 397.918518,438.420105 402.409180,432.899689 
M116.969124,470.912933 
	C116.030540,467.731750 114.889435,464.593262 114.206917,461.358063 
	C113.431381,457.681946 111.754501,453.521057 112.744423,450.261902 
	C117.557175,434.416870 115.903992,418.623138 113.734619,402.732788 
	C107.333115,355.842926 114.747940,311.111511 136.299622,269.108582 
	C179.275223,185.351669 271.080566,137.454697 364.604034,149.903198 
	C425.831848,158.052994 476.207306,186.314453 513.789124,235.400436 
	C553.868469,287.748474 569.229553,347.163605 558.996643,412.492462 
	C551.242188,461.998718 528.843811,504.375000 493.243866,539.572693 
	C463.728729,568.754395 427.973785,587.275940 388.468811,598.926453 
	C378.609375,601.834229 368.528900,603.992249 358.019135,606.627991 
	C366.853027,610.117737 375.130798,608.771118 383.540039,607.131531 
	C441.535370,595.823975 488.740723,566.621765 524.648132,520.047485 
	C569.866333,461.396362 585.076599,394.986023 570.742249,322.455750 
	C558.762085,261.837891 527.174011,212.979355 477.526917,176.145706 
	C444.649536,151.753693 407.813538,136.639343 367.200470,130.640244 
	C322.203064,123.993500 278.455688,128.360275 236.546555,146.087402 
	C179.082260,170.394241 136.593918,211.063553 108.932541,266.928986 
	C87.566078,310.081116 79.988708,355.832489 85.174545,403.669067 
	C88.128044,430.913483 96.401894,456.235168 113.111519,478.364502 
	C113.921616,479.437347 114.853027,480.418610 115.727959,481.442505 
	C116.165970,481.325470 116.603981,481.208405 117.041992,481.091370 
	C117.041992,477.995697 117.041992,474.900024 116.969124,470.912933 
z"/>
<path fill="#FDFDFD" opacity="1.000000" stroke="none" 
	d="
M402.185669,433.178833 
	C397.918518,438.420105 393.526459,442.609802 386.302673,440.520538 
	C380.986572,438.983032 379.618500,434.929840 378.860291,429.946503 
	C375.649139,408.841431 372.161560,387.778412 368.775055,366.700043 
	C368.239899,366.577087 367.704773,366.454132 367.169617,366.331177 
	C364.795807,371.621704 362.094940,376.793762 360.125000,382.230621 
	C357.185822,390.342590 354.746002,398.636200 352.124054,406.862183 
	C350.168060,412.998871 346.281769,416.357910 339.639648,417.272797 
	C329.557281,418.661530 324.832397,423.978027 323.600433,433.984619 
	C322.235931,445.067688 320.796631,446.516602 309.758240,447.402557 
	C291.198059,448.892212 288.001495,444.994354 285.593689,429.237152 
	C281.058685,399.559296 275.687897,370.009125 270.656860,340.360474 
	C262.819519,344.033081 254.283340,354.223755 247.670898,367.953064 
	C251.674164,369.029755 255.588379,370.015533 259.462006,371.141052 
	C264.463837,372.594299 269.053680,374.903198 269.736145,380.673126 
	C270.531769,387.399811 270.069458,394.273193 264.772278,399.205811 
	C263.077271,400.784180 259.372040,401.261047 256.880676,400.764984 
	C229.019547,395.217194 210.254684,407.831238 197.204575,430.935455 
	C191.857224,440.402496 185.099838,444.771393 174.137527,443.215363 
	C168.497055,442.414734 162.649246,443.074768 156.433350,443.074768 
	C153.990036,435.847198 155.185989,428.519867 159.987534,422.045471 
	C172.153976,405.640259 184.583893,389.430542 196.896179,373.133362 
	C216.215286,347.561584 235.502121,321.965424 254.846771,296.413055 
	C265.270630,282.644196 276.781342,279.027039 293.374359,284.188599 
	C297.208984,285.381470 298.589813,288.356079 299.220795,292.073242 
	C304.720581,324.473114 310.274353,356.863892 315.905334,389.241150 
	C316.142670,390.605927 317.296234,391.811371 318.022949,393.091034 
	C319.041779,391.884186 320.539703,390.838379 321.007690,389.446320 
	C328.207550,368.030365 335.352997,346.595276 342.334564,325.107269 
	C345.511139,315.330322 348.260223,305.415253 351.281403,295.586853 
	C353.508759,288.340942 358.406982,284.059265 366.009888,283.456665 
	C371.311554,283.036438 376.672577,282.843170 381.976898,283.122284 
	C387.424561,283.408966 390.801361,287.029114 391.895721,293.332642 
	C395.309265,312.995422 398.586426,332.681915 401.921051,352.358429 
	C402.801422,357.552979 403.698090,362.744751 404.842255,369.426971 
	C409.632660,364.149841 413.890320,360.042572 417.471863,355.412354 
	C432.315033,336.223206 446.939270,316.864868 461.672241,297.590332 
	C473.973175,281.497559 487.827423,278.590485 510.215973,286.995728 
	C503.066528,310.418365 495.981689,333.904388 488.721863,357.336182 
	C481.548981,380.487427 474.147583,403.567780 466.947479,426.710693 
	C462.948639,439.564026 444.538544,446.947815 432.409546,440.516479 
	C428.770447,438.586853 427.424622,435.899200 428.517273,431.922821 
	C431.858734,419.762390 435.237610,407.611450 438.448578,395.416412 
	C439.372437,391.907562 439.777435,388.262085 439.593384,384.226990 
	C427.198639,400.451233 414.803925,416.675446 402.185669,433.178833 
z"/>
<path fill="#FBFBFB" opacity="1.000000" stroke="none" 
	d="
M117.005554,471.358643 
	C117.041992,474.900024 117.041992,477.995697 117.041992,481.091370 
	C116.603981,481.208405 116.165970,481.325470 115.727959,481.442505 
	C114.853027,480.418610 113.921616,479.437347 113.111519,478.364502 
	C96.401894,456.235168 88.128044,430.913483 85.174545,403.669067 
	C79.988708,355.832489 87.566078,310.081116 108.932541,266.928986 
	C136.593918,211.063553 179.082260,170.394241 236.546555,146.087402 
	C278.455688,128.360275 322.203064,123.993500 367.200470,130.640244 
	C407.813538,136.639343 444.649536,151.753693 477.526917,176.145706 
	C527.174011,212.979355 558.762085,261.837891 570.742249,322.455750 
	C585.076599,394.986023 569.866333,461.396362 524.648132,520.047485 
	C488.740723,566.621765 441.535370,595.823975 383.540039,607.131531 
	C375.130798,608.771118 366.853027,610.117737 358.019135,606.627991 
	C368.528900,603.992249 378.609375,601.834229 388.468811,598.926453 
	C427.973785,587.275940 463.728729,568.754395 493.243866,539.572693 
	C528.843811,504.375000 551.242188,461.998718 558.996643,412.492462 
	C569.229553,347.163605 553.868469,287.748474 513.789124,235.400436 
	C476.207306,186.314453 425.831848,158.052994 364.604034,149.903198 
	C271.080566,137.454697 179.275223,185.351669 136.299622,269.108582 
	C114.747940,311.111511 107.333115,355.842926 113.734619,402.732788 
	C115.903992,418.623138 117.557175,434.416870 112.744423,450.261902 
	C111.754501,453.521057 113.431381,457.681946 114.206917,461.358063 
	C114.889435,464.593262 116.030540,467.731750 117.005554,471.358643 
z"/>
</svg>