<svg version="1.1" id="Layer_1" xmlns="http://www.w3.org/2000/svg" xmlns:xlink="http://www.w3.org/1999/xlink" x="0px" y="0px"
	 width="100%" viewBox="0 0 208 224" enable-background="new 0 0 208 224" xml:space="preserve">
<path fill="#000000" opacity="1.000000" stroke="none" 
	d="
M105.912186,131.546204 
	C107.664421,132.299713 107.337624,130.764282 107.563194,130.084778 
	C110.920082,119.972694 114.563492,109.934464 117.363647,99.667267 
	C118.900154,94.033447 122.648674,94.900116 126.599731,94.674904 
	C131.052933,94.421074 131.200699,97.494873 131.699890,100.489349 
	C132.946198,107.965401 134.209946,115.438538 135.581879,123.597885 
	C139.939407,119.846992 142.230972,115.568604 145.194641,111.858009 
	C148.312943,107.953812 151.273239,103.923889 154.350037,99.986000 
	C158.843567,94.234894 162.711212,93.204185 170.920593,95.861130 
	C169.626404,100.395760 168.410156,105.003151 166.994797,109.548531 
	C163.430328,120.995750 159.795639,132.421265 156.146759,143.841949 
	C154.934433,147.636353 147.701233,149.786545 144.446335,147.415497 
	C142.783310,146.204086 143.568008,144.705719 143.971542,143.344055 
	C145.428131,138.428879 146.982605,133.542709 147.696289,128.162186 
	C143.626221,133.481476 139.527695,138.779358 135.500534,144.130936 
	C133.960983,146.176788 132.478210,148.401459 129.499603,147.655838 
	C126.479652,146.899887 127.064697,144.073761 126.686615,141.871536 
	C125.624191,135.683258 124.584435,129.491074 123.366913,122.303856 
	C120.129669,127.010506 119.745880,131.708435 118.093369,135.893448 
	C117.292770,137.920990 116.760391,139.522675 113.774612,139.759995 
	C110.862282,139.991470 108.268745,142.234543 108.301544,145.747620 
	C108.342293,150.110718 105.341034,149.820419 102.486137,149.974182 
	C99.285255,150.146545 96.567245,149.948151 95.914551,145.776901 
	C94.269562,135.264221 92.383057,124.789330 90.497345,113.736595 
	C86.736885,116.203094 84.905579,119.553513 82.735748,123.181442 
	C86.132774,124.617455 91.110161,123.856117 90.270935,129.797699 
	C89.844353,132.817841 88.904785,134.911819 85.785751,134.275894 
	C75.740135,132.227814 69.727402,137.406647 65.283234,145.359055 
	C61.865639,151.474487 56.405762,146.680710 52.226780,148.794907 
	C51.150642,145.117752 52.342861,142.631577 54.088291,140.329941 
	C64.858910,126.127197 75.741554,112.008072 86.377724,97.705551 
	C89.436996,93.591721 93.471924,94.519928 97.271065,94.895302 
	C101.009575,95.264687 100.021469,98.874245 100.468025,101.306664 
	C102.301544,111.293953 104.048531,121.297134 105.912186,131.546204 
z"/>
<path fill="#000000" opacity="1.000000" stroke="none" 
	d="
M172.261398,173.258362 
	C208.529892,126.332085 180.900162,58.298283 122.790436,50.026676 
	C78.601448,43.736607 34.524395,78.398575 37.286964,129.716400 
	C37.658325,136.614853 39.988739,143.355881 37.543404,150.415848 
	C36.440296,153.600632 40.364044,156.757568 38.658833,161.682724 
	C34.338871,156.053085 31.471832,150.556229 30.082890,144.607162 
	C18.276783,94.039597 55.574718,45.125660 106.037781,42.641159 
	C154.833420,40.238758 194.545959,78.627998 193.054153,126.891563 
	C191.874298,165.062103 164.180374,197.513275 127.422081,203.805145 
	C125.294586,204.169296 123.175018,204.552261 119.546822,203.323730 
	C141.280487,199.131927 158.843689,190.019455 172.261398,173.258362 
z"/>
</svg>