<?xml version="1.0" encoding="UTF-8"?>
<svg version="1.1" xmlns="http://www.w3.org/2000/svg" width="482" height="518">
<path d="M0 0 C0.69931641 -0.020625 1.39863281 -0.04125 2.11914062 -0.0625 C6.90174039 -0.0982912 10.1921753 0.59839437 14.1875 3.25 C15.90759744 6.06190032 16.53192202 8.54028931 16.94140625 11.7890625 C17.0693457 12.7385376 17.19728516 13.6880127 17.32910156 14.66625977 C17.46799805 15.72514404 17.60689453 16.78402832 17.75 17.875 C20.06280633 34.55665438 23.15996652 51.09728242 26.18969727 67.66064453 C26.38654617 68.7393129 26.58339508 69.81798126 26.78620911 70.92933655 C27.16147474 72.98325229 27.5385124 75.03684525 27.91752625 77.09007263 C28.08492813 78.00466751 28.25233002 78.91926239 28.42480469 79.86157227 C28.5726239 80.66393814 28.72044312 81.46630402 28.8727417 82.29298401 C29.1875 84.25 29.1875 84.25 29.1875 86.25 C29.8475 86.25 30.5075 86.25 31.1875 86.25 C31.35838135 84.75944092 31.35838135 84.75944092 31.53271484 83.23876953 C32.12047159 79.15086816 33.32593286 75.32652369 34.6640625 71.4296875 C34.91022308 70.69695618 35.15638367 69.96422485 35.41000366 69.20928955 C36.20532458 66.84595928 37.00893307 64.48553764 37.8125 62.125 C38.36261428 60.49354084 38.91209056 58.86186642 39.4609375 57.22998047 C40.79461018 53.26799603 42.13411728 49.30802075 43.47619629 45.34887695 C45.05393645 40.69336566 46.62384056 36.03525721 48.1875 31.375 C48.60032227 30.153573 48.60032227 30.153573 49.02148438 28.9074707 C50.63699561 24.07856258 52.01892744 19.23724277 53.3125 14.3125 C54.77538569 9.08702273 56.03941087 5.80550497 60.1875 2.25 C64.81214453 0.31410229 68.82251532 -0.01999994 73.8125 0 C75.74996094 -0.00773438 75.74996094 -0.00773438 77.7265625 -0.015625 C82.80493905 0.37413753 82.80493905 0.37413753 85.1875 2.25 C88.70957558 7.8434026 89.39044217 13.88124206 90.4140625 20.2890625 C90.60721039 21.4474765 90.80035828 22.6058905 90.99935913 23.79940796 C91.61285974 27.48983188 92.21308008 31.18226541 92.8125 34.875 C93.42185282 38.5743675 94.03389725 42.27327831 94.64706421 45.97201538 C95.02719643 48.27088543 95.40458997 50.57021038 95.77896118 52.87002563 C96.03460342 54.432173 96.03460342 54.432173 96.29541016 56.02587891 C96.44402496 56.94043854 96.59263977 57.85499817 96.74575806 58.79727173 C97.13902128 60.9808267 97.61847326 63.10644573 98.1875 65.25 C101.85849501 62.5711658 103.91370052 60.14794196 106.1875 56.25 C106.8475 56.25 107.5075 56.25 108.1875 56.25 C108.55875 55.445625 108.55875 55.445625 108.9375 54.625 C111.91158828 48.97423226 115.8591128 43.90384737 119.6875 38.8125 C120.46492554 37.7762146 120.46492554 37.7762146 121.25805664 36.71899414 C125.42962231 31.18895205 129.71841302 25.76017983 134.08984375 20.38696289 C136.43343623 17.49612529 138.6703749 14.58676641 140.78515625 11.5234375 C142.66376858 8.8617295 144.51541978 6.84997677 147.1875 4.9375 C148.1465625 4.23173828 148.1465625 4.23173828 149.125 3.51171875 C156.36396828 -0.91666525 164.94386181 -0.96601797 173.1015625 0.92578125 C175.16069219 1.61542627 177.18095211 2.41970432 179.1875 3.25 C178.58694276 10.80388406 176.41448693 17.7185096 174.1875 24.9375 C173.78362944 26.26190138 173.38023622 27.58644841 172.97729492 28.91113281 C171.93051728 32.3454053 170.87507579 35.77694775 169.8168335 39.20770264 C169.20233464 41.20185901 168.59022123 43.19673015 167.97900391 45.19189453 C164.25982436 57.32864879 160.53499163 69.46007275 156.42944336 81.47265625 C154.92053538 85.92588934 153.52829887 90.40441418 152.18359375 94.91015625 C151.83240479 96.08102783 151.48121582 97.25189941 151.11938477 98.45825195 C150.43013891 100.76799776 149.74922912 103.08025243 149.07788086 105.39526367 C144.87575533 119.45396319 144.87575533 119.45396319 138.1875 123.25 C130.77769198 126.61130404 124.78968374 126.84667599 117.125 124.1875 C115.1875 122.25 115.1875 122.25 114.8828125 118.78125 C115.01233133 113.53366729 116.55805387 108.78585076 118.125 103.8125 C120.17601564 97.24068421 121.6348948 91.12608744 122.1875 84.25 C120.87277053 85.87319675 119.56078338 87.498615 118.25 89.125 C117.15365234 90.48238281 117.15365234 90.48238281 116.03515625 91.8671875 C114.1838748 94.09502747 114.1838748 94.09502747 113.1875 96.25 C112.5275 96.25 111.8675 96.25 111.1875 96.25 C110.89875 97.013125 110.61 97.77625 110.3125 98.5625 C109.1875 101.25 109.1875 101.25 107.1875 104.25 C106.5275 104.25 105.8675 104.25 105.1875 104.25 C104.5275 105.9 103.8675 107.55 103.1875 109.25 C102.5275 109.25 101.8675 109.25 101.1875 109.25 C100.94 109.97703125 100.6925 110.7040625 100.4375 111.453125 C99.06470744 114.52474835 97.44984093 116.5214059 95.1875 119 C94.48625 119.77859375 93.785 120.5571875 93.0625 121.359375 C90.45460973 123.98899769 89.58836963 124.22772946 85.8125 124.4375 C80.78990964 124.17771084 80.78990964 124.17771084 78.1875 122.25 C76.17889696 118.99903878 75.78282194 116.08149179 75.375 112.3125 C74.23587499 102.92166456 72.54930989 93.63685666 70.86401367 84.33032227 C70.64849854 83.11658936 70.4329834 81.90285645 70.2109375 80.65234375 C70.01419434 79.56429443 69.81745117 78.47624512 69.61474609 77.35522461 C69.19120132 74.2769012 69.11115881 71.35289078 69.1875 68.25 C68.5275 68.25 67.8675 68.25 67.1875 68.25 C65.65706025 71.93978058 64.38853497 75.65606841 63.19921875 79.46875 C62.63364258 81.23798828 62.63364258 81.23798828 62.05664062 83.04296875 C61.26995377 85.51095495 60.49386873 87.98234608 59.72851562 90.45703125 C59.34759766 91.63652344 58.96667969 92.81601562 58.57421875 94.03125 C58.23608154 95.10439453 57.89794434 96.17753906 57.54956055 97.28320312 C55.6143045 101.49851616 53.06214675 104.52357438 48.6875 106.21875 C47.8625 106.3940625 47.0375 106.569375 46.1875 106.75 C41.50680851 108.0436235 38.96425375 109.04279734 36.1875 113.25 C35.30798171 116.58379314 34.62290353 119.88763663 34.05859375 123.2890625 C33.1875 126.25 33.1875 126.25 31.65625 128.12109375 C27.89158737 129.84259296 24.3415674 129.72365039 20.25 129.6875 C19.45142578 129.70748047 18.65285156 129.72746094 17.83007812 129.74804688 C13.91365546 129.74480212 11.6877821 129.54166513 8.24609375 127.53515625 C4.06521255 122.89414012 3.55340527 117.30490613 2.63671875 111.33984375 C2.49757553 110.46718872 2.35843231 109.59453369 2.21507263 108.69543457 C1.91758719 106.82719747 1.62260282 104.95856069 1.32989502 103.08956909 C0.56727856 98.22434621 -0.21519816 93.36231664 -0.99609375 88.5 C-1.22767181 87.0540873 -1.22767181 87.0540873 -1.46392822 85.57896423 C-2.79899171 77.26837506 -4.21017214 68.97401183 -5.6875 60.6875 C-5.89028564 59.53693115 -6.09307129 58.3863623 -6.30200195 57.20092773 C-6.48851318 56.16395752 -6.67502441 55.1269873 -6.8671875 54.05859375 C-7.02687012 53.16970459 -7.18655273 52.28081543 -7.35107422 51.36499023 C-7.73058814 49.20858709 -7.73058814 49.20858709 -8.8125 47.25 C-15.79382806 51.90421871 -20.43310972 59.69606878 -23.8125 67.25 C-23.23242188 67.35957031 -22.65234375 67.46914063 -22.0546875 67.58203125 C-17.28189991 68.55076537 -12.89243168 69.46370519 -8.8125 72.25 C-6.51027929 76.45405521 -6.6907163 80.26891219 -7.03515625 84.90625 C-8.21398661 88.46051239 -9.71815167 91.14169594 -12.8125 93.25 C-16.38503572 93.89326173 -19.82992325 93.61896302 -23.4375 93.375 C-35.32389774 92.98669487 -43.50092684 94.54214523 -52.8203125 102.3359375 C-56.62892617 105.99519377 -59.47032311 110.14690393 -62.30078125 114.58203125 C-62.79964844 115.35933594 -63.29851562 116.13664062 -63.8125 116.9375 C-64.245625 117.64261719 -64.67875 118.34773438 -65.125 119.07421875 C-70.42198139 125.90389151 -70.42198139 125.90389151 -75.54589844 126.64575195 C-78.77402893 126.74202686 -81.9604323 126.68603322 -85.1875 126.5625 C-86.30511719 126.53994141 -87.42273438 126.51738281 -88.57421875 126.49414062 C-91.3216989 126.43543378 -94.06639761 126.35336846 -96.8125 126.25 C-98.63972949 120.76831153 -98.24026735 116.61890952 -95.8125 111.4375 C-93.42572094 107.01338744 -90.59391129 103.25962149 -87.37890625 99.41015625 C-83.87726275 95.1734404 -80.65247437 90.72294347 -77.375 86.3125 C-72.69803124 80.03447398 -67.93973136 73.89494149 -62.921875 67.88671875 C-59.94477381 64.16534226 -57.22173407 60.27922432 -54.48022461 56.3828125 C-51.34895252 51.94923952 -48.04371582 47.69528933 -44.6171875 43.484375 C-42.45072868 40.80209265 -40.37942011 38.05894313 -38.32714844 35.28881836 C-36.91676015 33.39034115 -35.49478774 31.50119708 -34.0703125 29.61328125 C-31.8041659 26.5954747 -29.57866454 23.55198795 -27.375 20.48828125 C-26.78976563 19.67939453 -26.20453125 18.87050781 -25.6015625 18.03710938 C-24.40328337 16.37966433 -23.2106134 14.71815034 -22.0234375 13.05273438 C-15.72040962 4.38260021 -11.10663612 0.08055584 0 0 Z " fill="#FDFDFD" transform="translate(216.8125,217.75)"/>
<path d="M0 0 C0.82694366 -0.00012085 1.65388733 -0.0002417 2.50588989 -0.00036621 C16.84512237 0.02932057 30.59701243 1.25581277 44.625 4.375 C45.33479004 4.52453125 46.04458008 4.6740625 46.77587891 4.828125 C94.99483323 15.19418037 137.4329248 47.22855505 164.20532227 87.99291992 C182.42386422 116.23659574 192.71862352 149.76025489 193.625 183.375 C193.66496094 184.69113281 193.70492188 186.00726563 193.74609375 187.36328125 C194.16311597 207.95941282 190.53473847 227.68384711 184.625 247.375 C184.25568359 248.73431641 184.25568359 248.73431641 183.87890625 250.12109375 C182.40432388 255.46124799 180.37242468 260.17836881 177.8046875 265.0859375 C176.58774352 267.44729238 175.58952241 269.86715106 174.57421875 272.3203125 C172.66862505 276.44517788 170.42394598 280.40101499 168.24609375 284.38671875 C166.99226547 286.69799257 165.77991133 289.01346489 164.625 291.375 C163.965 291.375 163.305 291.375 162.625 291.375 C162.356875 292.096875 162.08875 292.81875 161.8125 293.5625 C160.62598638 296.37266383 159.35014361 298.85916557 157.625 301.375 C156.965 301.375 156.305 301.375 155.625 301.375 C155.34470947 301.96240967 155.06441895 302.54981934 154.77563477 303.1550293 C150.65597641 311.10326893 144.01941659 317.29339342 137.73022461 323.53051758 C136.18690998 325.06308591 134.65461345 326.6060916 133.12304688 328.15039062 C128.26435022 333.0165554 123.50719163 337.7411831 117.625 341.375 C116.965 341.375 116.305 341.375 115.625 341.375 C115.625 342.035 115.625 342.695 115.625 343.375 C113.96362305 344.60839844 113.96362305 344.60839844 111.63671875 345.984375 C110.79052979 346.4889624 109.94434082 346.9935498 109.07250977 347.51342773 C108.16170654 348.04524658 107.25090332 348.57706543 106.3125 349.125 C104.93179321 349.93916382 104.93179321 349.93916382 103.52319336 350.76977539 C100.89548001 352.31364688 98.26124883 353.8457635 95.625 355.375 C93.98144531 356.33986328 93.98144531 356.33986328 92.3046875 357.32421875 C85.67524963 361.09409312 78.80146383 363.82191366 71.625 366.375 C70.48417969 366.7978125 69.34335937 367.220625 68.16796875 367.65625 C55.07247718 372.30990248 38.53368953 378.01897401 24.625 374.375 C23.965 373.715 23.305 373.055 22.625 372.375 C26.89887695 370.87881781 31.15003487 369.75775618 35.5625 368.75 C58.31279696 363.23502166 81.15944174 354.49602817 100.625 341.375 C101.50285156 340.78976562 102.38070313 340.20453125 103.28515625 339.6015625 C141.26386347 313.65629419 168.09745099 274.14280714 177.17089844 228.82373047 C185.75238744 182.54828173 177.43542264 134.54688361 151.10205078 95.09326172 C143.43385232 84.15297348 134.64171754 74.35148034 125.25 64.875 C124.73759766 64.35776367 124.22519531 63.84052734 123.69726562 63.30761719 C121.42991078 61.05080117 119.29737739 59.15658492 116.625 57.375 C116.625 56.715 116.625 56.055 116.625 55.375 C115.75294922 54.95927734 115.75294922 54.95927734 114.86328125 54.53515625 C112.7132461 53.42074013 110.80203721 52.18987191 108.8125 50.8125 C68.4344512 23.74010513 20.63140364 11.07701736 -27.71801758 20.53149414 C-36.79293793 22.51819102 -45.64585418 25.21114231 -54.375 28.375 C-55.42300781 28.75269531 -56.47101563 29.13039063 -57.55078125 29.51953125 C-77.45646425 37.31110565 -95.86315024 48.70466108 -111.375 63.375 C-112.72489846 64.52585861 -114.07890621 65.67191931 -115.4375 66.8125 C-122.94962503 73.40446514 -129.02861756 80.9101147 -134.45678711 89.26025391 C-135.38283042 90.66378501 -136.37356561 92.02422803 -137.375 93.375 C-138.035 93.375 -138.695 93.375 -139.375 93.375 C-139.63925781 94.26445312 -139.90351563 95.15390625 -140.17578125 96.0703125 C-141.3292986 99.24906065 -142.63791674 101.4930455 -144.5625 104.25 C-160.60247681 128.89354026 -166.78421908 161.01938564 -166.63574219 189.95239258 C-166.62499823 192.43790991 -166.63571521 194.9227072 -166.6484375 197.40820312 C-166.65477331 205.62676593 -166.26566474 213.43976312 -164.82910156 221.55737305 C-164.17169841 225.63645357 -164.0805855 229.62685389 -164.125 233.75 C-164.11726563 234.49121094 -164.10953125 235.23242188 -164.1015625 235.99609375 C-164.11846871 240.78900361 -164.93267633 244.76742127 -166.375 249.375 C-166.73878605 253.95870429 -166.66471015 257.03442679 -164.875 261.25 C-162.89273841 265.92180901 -163.09850844 270.37767103 -163.375 275.375 C-164.365 275.705 -165.355 276.035 -166.375 276.375 C-173.77662158 265.77722365 -180.64042892 254.82357026 -184.375 242.375 C-184.89707031 240.66570312 -184.89707031 240.66570312 -185.4296875 238.921875 C-198.56468114 193.09321104 -189.95778271 141.75625714 -167.375 100.375 C-160.55321217 88.07807092 -152.47890494 77.00441861 -143.5 66.1875 C-143.0354541 65.62208496 -142.5709082 65.05666992 -142.09228516 64.47412109 C-139.89079301 61.86825681 -138.6750611 60.47502037 -135.375 59.375 C-134.69013275 58.05092331 -134.02629797 56.71590759 -133.375 55.375 C-131.375 53.125 -131.375 53.125 -129.375 51.375 C-128.715 51.375 -128.055 51.375 -127.375 51.375 C-127.17777344 50.8284375 -126.98054688 50.281875 -126.77734375 49.71875 C-124.78071911 46.38177288 -121.95298355 44.24747032 -118.9375 41.875 C-118.27572754 41.35309082 -117.61395508 40.83118164 -116.93212891 40.29345703 C-99.6793626 26.95723253 -80.17320499 16.07825422 -59.375 9.375 C-58.35792969 9.00181641 -58.35792969 9.00181641 -57.3203125 8.62109375 C-52.38786615 6.84355176 -47.34063553 5.55048387 -42.25 4.3125 C-41.27522705 4.06886719 -41.27522705 4.06886719 -40.28076172 3.8203125 C-26.93853737 0.67570202 -13.63990966 -0.03083433 0 0 Z " fill="#FBFBFB" transform="translate(254.375,97.625)"/>
<path d="M0 0 C0.66 0.33 1.32 0.66 2 1 C-2.76355748 7.0867679 -2.76355748 7.0867679 -7 9 C-7.70125 9.70125 -8.4025 10.4025 -9.125 11.125 C-9.74375 11.74375 -10.3625 12.3625 -11 13 C-11.66 13 -12.32 13 -13 13 C-11.44533803 8.91667098 -8.74912156 6.91791007 -5.375 4.25 C-4.37210938 3.45078125 -3.36921875 2.6515625 -2.3359375 1.828125 C-1.17964844 0.92320312 -1.17964844 0.92320312 0 0 Z " fill="#F0ECEC" transform="translate(140,136)"/>
<path d="M0 0 C0.99 0.33 1.98 0.66 3 1 C-1.26041226 4.76354036 -5.51848911 8.49881962 -10 12 C-8.43873668 8.16780823 -5.97133075 5.82638778 -3 3 C-2.401875 2.401875 -1.80375 1.80375 -1.1875 1.1875 C-0.795625 0.795625 -0.40375 0.40375 0 0 Z " fill="#F2F1F2" transform="translate(206,219)"/>
</svg>
